PathFileType	4	(X/Y/Z)	Patient4_TMGait_0pt4_02_left_08.trc.trc
DataRate	CameraRate	NumFrames	NumMarkers	Units	OrigDataRate	OrigDataStartFrame	OrigNumFrames
76.502732240437	76.502732240437	6	33	mm	76.502732240437	89	       141
Frame#	Time	Sacral			L.Shoulder			Chest			R.Shoulder			Neck			R.ASIS			L.ASIS			R.Thigh.Superior			R.Thigh.Lateral			R.Thigh.Inferior			R.Patella			L.Thigh.Superior			L.Thigh.Lateral			L.Thigh.Inferior			L.Patella			L.Shank.Superior			L.Shank.Lateral			L.Shank.Inferior			R.Shank.Superior			R.Shank.Lateral			R.Shank.Inferior			R.Heel			R.Midfoot.Superior			R.Midfoot.Lateral			R.Toe			L.Heel			L.Midfoot.Lateral			L.Midfoot.Superior			L.Toe			L.Elbow			L.Wrist			R.Elbow			R.Wrist			
		X1	Y1	Z1	X2	Y2	Z2	X3	Y3	Z3	X4	Y4	Z4	X5	Y5	Z5	X6	Y6	Z6	X7	Y7	Z7	X8	Y8	Z8	X9	Y9	Z9	X10	Y10	Z10	X11	Y11	Z11	X12	Y12	Z12	X13	Y13	Z13	X14	Y14	Z14	X15	Y15	Z15	X16	Y16	Z16	X17	Y17	Z17	X18	Y18	Z18	X19	Y19	Z19	X20	Y20	Z20	X21	Y21	Z21	X22	Y22	Z22	X23	Y23	Z23	X24	Y24	Z24	X25	Y25	Z25	X26	Y26	Z26	X27	Y27	Z27	X28	Y28	Z28	X29	Y29	Z29	X30	Y30	Z30	X31	Y31	Z31	X32	Y32	Z32	X33	Y33	Z33	

89	11.910285714286	914.711367165472	990.911760565135	479.459546820487	1092.563728029010	1427.620307961832	298.441448723541	1187.867290474164	1360.548512000052	464.585922056116	1093.131322429415	1433.015755583912	633.433237729158	1084.175735450348	1489.959631426933	452.544240308770	1146.388644117279	944.651749318006	602.411148668772	1138.047444594775	957.057810485526	328.458832801911	1207.869520464903	748.374172999003	571.077217334862	1138.893972173921	632.386551005583	631.750418805737	1220.331062682106	587.608985750671	550.232438364477	1228.967809472777	498.564256992158	555.964295723466	1189.184083073255	742.085825566646	352.432754859447	1114.835609761011	622.827261123059	281.487141202556	1208.176431745001	545.186695405176	338.230038138375	1205.553658579162	458.993061894643	332.412772934742	1138.542112380375	398.064110184901	327.872263115820	997.135787935058	351.477203300978	285.328664540797	987.880313226904	223.197482305997	340.993147079488	1202.891087190495	407.862381243408	564.586914407244	1136.670082240369	302.732063502248	629.330111964024	1179.378656724081	208.664469585211	566.215848307720	1048.391988291018	42.523542218812	543.826175921003	1220.017769010068	98.509712315196	572.233122221009	1134.825714049274	37.597591127084	615.028629514859	1342.015243109191	47.593533309512	595.105200894326	802.643475620303	151.142726813282	389.182531220681	857.458033340980	108.769003312684	306.292676216789	961.495250593018	122.925910995253	322.276688587622	1043.869927703585	32.704079350238	290.947383433409	1100.015995789390	1075.808392649438	178.698952719196	1305.209115899083	912.404277265083	197.240181721376	1033.307531221791	1092.809677294025	757.612104778215	1137.460373076797	852.957951667657	764.784187270049	
90	11.923357142857	914.976192333140	991.103868193026	483.183905156968	1091.051329393172	1427.927055907745	300.991056822954	1188.030090349726	1360.695644242717	466.142315274564	1095.059631454886	1433.009162128973	636.038067018887	1084.132482486828	1490.148428680673	455.296004837661	1147.582395334484	944.822819637258	604.296624453760	1136.529279713011	957.033094136931	330.662642475731	1207.939578200034	747.806196242874	573.268953385381	1138.004105559322	631.925759125925	633.208990418563	1219.226869583248	586.970979695568	551.613600033658	1227.253564379468	497.789561700309	556.726565108139	1193.513538878096	745.641629437917	353.848590194534	1123.640825163645	624.899848598844	281.711942462303	1219.455389294198	549.545741364998	338.077777986168	1218.550688306536	462.534915674480	331.813468773460	1150.397215381558	401.177580918594	327.364898133904	1007.467016629615	358.621317734081	285.176809505131	995.121893751934	230.340762525528	340.520956469919	1200.514782677835	407.186286879663	565.138167346374	1133.772726477938	302.353116778455	629.654685879954	1175.386318263863	208.170367019310	566.218247400424	1043.178802680314	42.599510768498	543.871100753363	1214.911421631123	98.343373297499	572.300318133893	1129.593485142974	37.600270383881	615.090002276987	1336.882927083899	47.071221873119	595.329532301284	807.632344233977	167.195035759267	389.087666847976	859.914526484126	121.112412295573	306.303395392965	965.020963832174	128.695451913297	322.113804952462	1040.838031395283	31.808003250588	291.235733488354	1094.378631253202	1075.830524466287	181.361425008004	1295.467997923116	906.564509746511	195.420298721943	1042.054729410198	1092.066699383780	762.162321039532	1154.041123739856	855.869306089939	767.053435990301	
91	11.936428571429	915.048504770621	991.345229173806	486.826113506458	1089.499067370472	1428.121725502460	303.318425077088	1188.169422380679	1360.778159768595	467.466406819637	1097.058198414890	1433.074595692554	638.387827904665	1084.125143515605	1490.328388391924	457.779996775680	1148.585330666464	944.893284276754	606.061985671582	1134.647840379171	956.971772210516	332.617377788388	1207.751221680228	747.209656195673	575.052456476684	1137.110887189578	631.483065905591	634.540111856379	1217.877835717585	586.323421019805	552.689813121265	1225.318806522372	497.008888445624	557.332316697493	1197.486008247793	749.446564721226	355.033554725333	1131.784288742626	627.393621631066	281.881155101839	1229.936956565475	554.399658785309	337.897061119396	1230.892008565071	466.691579109277	331.322485591778	1161.840141217981	404.782700450562	326.970624117913	1017.682666402413	365.682466279230	285.052476206347	1002.723481008993	237.427953055598	340.212159374884	1197.964067518450	406.506387008662	565.585384758381	1130.745164564511	301.967712412157	629.954024041843	1171.255904542263	207.665548123695	566.164786679504	1037.868906279962	42.653411334208	543.929658134787	1209.723283809660	98.136633192192	572.306826081254	1124.281113502761	37.592695977165	615.141307185660	1331.674459004603	46.482516863934	595.480509051543	813.509957747189	182.229613107618	389.055086266474	863.469997022289	132.940852368539	306.385481488018	969.342680846441	134.613982801401	322.137163561395	1039.115064171053	31.148507482006	291.604634091797	1088.701494285624	1075.779261097260	183.837197000857	1285.110014056967	900.519270715559	193.477898424895	1050.798570269070	1091.647308123618	766.632946671380	1170.665766030192	859.459109616676	769.028348531656	
92	11.949500000000	914.940587860506	991.674040943758	490.355652956615	1087.936920199098	1428.246561908268	305.426547301751	1188.296481090486	1360.832363203839	468.566450652376	1099.123656137168	1433.251111704976	640.476131341472	1084.171415319527	1490.531495919362	459.989909279225	1149.402734614761	944.888066815030	607.703985462490	1132.511523616727	956.951091097660	334.344631117085	1207.315434417243	746.617894838736	576.412032458268	1136.193550547893	631.091913622865	635.741820466474	1216.283022611894	585.683262992629	553.481433794100	1223.150841159125	496.247837274019	557.799832532807	1201.015422365131	753.454873023460	356.043014976595	1139.141522357681	630.266279367978	282.033485884386	1239.482839852033	559.661151204602	337.718359637686	1242.396311189329	471.376358906330	330.928096382006	1172.703861764725	408.806279971561	326.681323165410	1027.607952583925	372.446581982969	284.962564982390	1010.636251252041	244.189397972952	340.030508573830	1195.232638748593	405.853423734445	565.946016739392	1127.585712987012	301.603888398958	630.243800290047	1167.012438410623	207.181049279704	566.080917407740	1032.513215684336	42.695181407396	544.004854895937	1204.491686870403	97.923664975276	572.282078086100	1118.933041478630	37.585322959579	615.191859266703	1326.425907952445	45.883979905083	595.579576028033	820.198564857044	195.531009018886	389.035610001471	868.221187287138	143.631669771139	306.497528422575	974.597424412414	140.399316944972	322.278053425958	1039.209047725920	30.828103295857	292.024925305181	1083.030033950689	1075.694387035997	186.166448867513	1274.104943838139	894.286912844894	191.427207449036	1059.511261616590	1091.592144947716	770.974928280426	1187.261516483075	863.784526231030	770.659864348707	
93	11.962571428571	914.668476548542	992.129732998287	493.751113986540	1086.392676264014	1428.346257094154	307.327739787766	1188.422206145577	1360.896419981688	469.458802855285	1101.250408537953	1433.572684094812	642.305214876077	1084.285083639950	1490.788293490613	461.930828583247	1150.039605482645	944.835727381255	609.216991411863	1130.223741859314	957.046514702542	335.883766942018	1206.641169968425	746.052519574979	577.387694695187	1135.183533294274	630.774739765656	636.815953029793	1214.426516677315	585.062365757126	554.036963327083	1220.718569592529	495.529135763389	558.151397405441	1204.028878259207	757.617303405783	356.941559054812	1145.636930003873	633.461726524417	282.197659933194	1248.004536246954	565.228989260064	337.563038403967	1252.929724987290	476.491621292287	330.611352839136	1182.878371637624	413.156838321299	326.474935814619	1037.126922004989	378.683111454266	284.903275597219	1018.872671911089	250.343936915724	339.920784798601	1192.295473567795	405.254321981767	566.239220801791	1124.271918721417	301.284327775920	630.532870196580	1162.667670047512	206.743440069665	565.990758128156	1027.151717593006	42.732589204125	544.094849752290	1199.245792827192	97.730001505111	572.251390408468	1113.581803846885	37.584230290804	615.247454633279	1321.163437603163	45.321628605896	595.647220893668	827.672415332745	206.424839433577	388.974978278466	874.292153833456	152.585545147725	306.582828476495	980.969459164691	145.737763427692	322.445347447742	1041.649125057692	30.912523458304	292.432687272044	1077.401959891209	1075.618400899774	188.392512442303	1262.426888881495	887.909527279947	189.293355348964	1068.159883340723	1091.929423326470	775.138049266971	1203.765596884028	868.899726241318	771.898395082173	
94	11.975642857143	914.251514613120	992.746211508808	497.000712731552	1084.888990553853	1428.461500456698	309.041091101106	1188.556372070766	1361.003905056859	470.164662054778	1103.431517562243	1434.061018648837	643.884710226986	1084.475058209146	1491.122719301251	463.618521771547	1150.500957681329	944.762589451752	610.590441773752	1127.868674863918	957.321971346043	337.273370175626	1205.732271482323	745.522835527409	578.052179713203	1133.992094146584	630.544070674176	637.769486335713	1212.284392047981	584.468207318353	554.417680000671	1217.982685589878	494.870531246427	558.411615149460	1206.470623570980	761.880768557178	357.788328256253	1151.234175075914	636.910479279285	282.395464851548	1255.455226490268	570.991667685469	337.445079829616	1262.403006225127	481.932821462046	330.353266270606	1192.307053445909	417.729133336524	326.321430341468	1046.184190797835	384.156709966736	284.862710572771	1027.503985156498	255.618370987049	339.815164995715	1189.117778708962	404.729164211875	566.483958212554	1120.771658437020	301.024364635911	630.826028502916	1158.223258608271	206.371922729369	565.914887978519	1021.810941935921	42.770189668616	544.194781076009	1194.004171461203	97.571141403664	572.233127304233	1108.246774372062	37.591339043976	615.310781969751	1315.902680637252	44.827857696993	595.700058738506	835.976896299837	214.337814623370	388.823410401978	881.828631338503	159.286388716386	306.574473807642	988.670419432741	150.312956246170	322.531624117954	1046.918472080012	31.409596841946	292.718592497736	1071.848942950281	1075.590304559390	190.554341014767	1250.063527281881	881.452797174500	187.115999779272	1076.706347224012	1092.666262049868	779.073500794461	1220.121401855279	874.845890811271	772.694476112922	
